Coordinates
version=1
nRows=22
nColumns=24
inDegrees=yes

Units are S.I. units (second, meters, Newtons, ...)
Angles are in degrees.

endheader
time	pelvis_tilt	pelvis_list	pelvis_rotation	pelvis_tx	pelvis_ty	pelvis_tz	hip_flexion_r	hip_adduction_r	hip_rotation_r	knee_angle_r	ankle_angle_r	subtalar_angle_r	mtp_angle_r	hip_flexion_l	hip_adduction_l	hip_rotation_l	knee_angle_l	ankle_angle_l	subtalar_angle_l	mtp_angle_l	lumbar_extension	lumbar_bending	lumbar_rotation
      1.09583333	     -5.19485943	     -2.00466499	     -3.41125368	      0.06932832	      1.01990106	      0.30628986	    -13.00944318	      3.30317892	      0.23188455	    -12.36826569	     19.79033714	      3.94269864	      7.98209386	     33.71433627	     -3.73866819	     -2.91326252	     -5.09690998	     11.57892720	      6.28104791	      3.75173474	     -6.82789315	      4.20427253	      5.73488411
      1.10000000	     -5.18956534	     -1.95255088	     -3.52625827	      0.07573589	      1.01920358	      0.30600727	    -13.15227048	      3.14412432	      0.17674987	    -12.83263314	     19.58922024	      4.16956283	      8.02693267	     33.74874612	     -3.67164630	     -2.79884971	     -5.71425047	     11.34968993	      6.21169494	      3.75829669	     -6.81279020	      4.03523381	      5.81217777
      1.10416667	     -5.19250197	     -1.87559696	     -3.65266479	      0.08218027	      1.01853968	      0.30573471	    -13.26469132	      2.95263661	      0.10767729	    -13.33936822	     19.43050779	      4.42444722	      8.14024055	     33.77579846	     -3.58457049	     -2.67945321	     -6.33284042	     11.03837685	      6.02169598	      3.77786495	     -6.77595446	      3.83679170	      5.87511870
      1.10833333	     -5.19052354	     -1.79515020	     -3.77088578	      0.08865443	      1.01793150	      0.30545390	    -13.37827461	      2.75911742	      0.05019054	    -13.85017392	     19.18476170	      4.63373639	      8.28812552	     33.79143985	     -3.49104184	     -2.55104706	     -6.95932535	     10.68201798	      5.83576928	      3.80507705	     -6.74481180	      3.62740572	      5.90768829
      1.11250000	     -5.18572184	     -1.70957600	     -3.88229570	      0.09512835	      1.01736151	      0.30512144	    -13.46639090	      2.55279950	     -0.06356474	    -14.41663336	     18.98157580	      4.90017481	      8.60247030	     33.80838969	     -3.38507828	     -2.40554613	     -7.61303439	     10.28683036	      5.54371894	      3.86466611	     -6.71585300	      3.42847874	      5.96054104
      1.11666667	     -5.19689091	     -1.61413281	     -3.99619764	      0.10167235	      1.01684913	      0.30485463	    -13.54758986	      2.34716860	     -0.09083915	    -14.95161130	     18.61030284	      5.02061335	      8.78360824	     33.83910887	     -3.28460147	     -2.34135461	     -8.28012490	      9.86052015	      5.41678376	      3.89367603	     -6.66149789	      3.19034835	      5.95578413
      1.12083333	     -5.21575476	     -1.53200627	     -4.09028981	      0.10818469	      1.01634889	      0.30449721	    -13.58668089	      2.15043106	     -0.19418709	    -15.54507217	     18.20635232	      5.12392994	     12.47478306	     33.88232486	     -3.17703653	     -2.16893635	     -8.95958695	      9.36303245	      5.03941575	      4.56209788	     -6.60031369	      3.00570920	      5.95169703
      1.12500000	     -5.22057563	     -1.41314443	     -4.19570165	      0.11475827	      1.01593608	      0.30417160	    -13.61835363	      1.90602286	     -0.32228103	    -16.18606629	     17.86171973	      5.37207101	     12.55804630	     33.92651885	     -3.05610477	     -2.18990597	     -9.69613486	      8.93294018	      4.91547657	      4.56269523	     -6.55009651	      2.74143652	      5.98613818
      1.12916667	     -5.24511419	     -1.29919812	     -4.28426004	      0.12133476	      1.01554331	      0.30380893	    -13.61177432	      1.67211850	     -0.45248965	    -16.85512793	     17.46157972	      5.56996908	     12.72637382	     33.99264978	     -2.93089361	     -2.15122399	    -10.43738846	      8.45720933	      4.69165106	      4.56684888	     -6.47018982	      2.49385249	      5.98438082
      1.13333333	     -5.27740289	     -1.17802836	     -4.36817624	      0.12791851	      1.01519545	      0.30342033	    -13.56828083	      1.42663251	     -0.60363660	    -17.57345035	     17.02692042	      5.78371362	     13.04770259	     34.06612969	     -2.79795581	     -2.10846586	    -11.18415119	      7.97292323	      4.43455373	      4.57658940	     -6.38558233	      2.23900535	      5.97758893
      1.13750000	     -5.23689218	     -1.03935748	     -4.44200048	      0.13451574	      1.01505116	      0.30303553	    -13.60165631	      1.16176563	     -0.73118672	    -18.27149728	     16.44595911	      5.88008965	     15.90378000	     34.04840308	     -2.64160311	     -2.05921128	    -11.90989350	      7.46383160	      4.09646266	      4.68245822	     -6.39479906	      1.94864231	      5.92489515
      1.14166667	     -5.30767195	     -0.93536152	     -4.49653661	      0.14112438	      1.01473749	      0.30259081	    -13.47803713	      0.94236124	     -0.89479532	    -19.05406167	     15.91079240	      6.05638808	     16.08738683	     34.21234612	     -2.53244741	     -2.12453191	    -12.77317591	      7.07939391	      4.05561349	      4.67372830	     -6.25206557	      1.72635693	      5.91715180
      1.14583333	     -5.29725714	     -0.80737267	     -4.55406259	      0.14773408	      1.01464627	      0.30217366	    -13.42517061	      0.69497120	     -1.02596734	    -19.85360105	     15.29630974	      6.08681165	     16.13373538	     34.26460604	     -2.40005633	     -2.19335391	    -13.59382280	      6.69249857	      3.93372985	      4.66426878	     -6.21059243	      1.46473922	      5.87433418
      1.15000000	     -5.36663868	     -0.65644500	     -4.59945971	      0.15433892	      1.01444231	      0.30169068	    -13.22829509	      0.41393174	     -1.24832146	    -20.76979214	     14.78317604	      6.35670950	     16.40109106	     34.40487509	     -2.23828846	     -2.20426731	    -14.41981835	      6.29795943	      3.72422801	      4.64186556	     -6.07460710	      1.15917111	      5.82678401
      1.15416667	     -5.35928282	     -0.51353382	     -4.63170232	      0.16095490	      1.01446139	      0.30121687	    -13.12196642	      0.14942359	     -1.40484746	    -21.64504094	     14.06586739	      6.43995467	     16.54202554	     34.45703389	     -2.08201711	     -2.24889565	    -15.24221767	      5.95818504	      3.60817479	      4.62495518	     -6.03949379	      0.85946220	      5.77211258
      1.15833333	     -5.38298789	     -0.36648041	     -4.66490499	      0.16751906	      1.01446166	      0.30067335	    -12.92063780	     -0.13668494	     -1.63463686	    -22.62602055	     13.35746188	      6.55263659	     20.93307417	     34.53947761	     -1.91502521	     -2.25009658	    -16.05724991	      5.60836184	      3.35404711	      4.23812007	     -5.96409239	      0.59778607	      5.70319894
      1.16250000	     -5.35062597	     -0.22241610	     -4.67379205	      0.17409036	      1.01459853	      0.30013221	    -12.77287413	     -0.40911290	     -1.83823363	    -23.61879532	     12.61671805	      6.60198002	     20.94472705	     34.57207660	     -1.74966258	     -2.32179068	    -16.90122322	      5.39475797	      3.28106548	      4.23108872	     -5.95285313	      0.31747029	      5.65233962
      1.16666667	     -5.39301183	     -0.06049775	     -4.69191631	      0.18063740	      1.01464780	      0.29955397	    -12.48179339	     -0.71627356	     -2.09186738	    -24.72821838	     11.94722869	      6.87363738	     21.15909365	     34.66865845	     -1.57014839	     -2.36149470	    -17.71134805	      5.16942103	      3.19012783	      4.18635683	     -5.86327313	      0.00745142	      5.57813592
      1.17083333	     -5.38366274	      0.10012401	     -4.68902343	      0.18717483	      1.01485565	      0.29898716	    -12.24387518	     -1.00713627	     -2.29203512	    -25.82311671	     11.15386382	      6.91373461	     21.23036236	     34.69832368	     -1.38344465	     -2.41257095	    -18.49829230	      4.95809277	      3.12391045	      4.16665058	     -5.83486700	     -0.31835368	      5.50777223
      1.17500000	     -5.37008603	      0.28764696	     -4.68044126	      0.19366151	      1.01508934	      0.29833492	    -11.95226449	     -1.35136742	     -2.57926623	    -27.02170293	     10.39956759	      7.06023657	     23.47843816	     34.69393447	     -1.14752424	     -2.38627663	    -19.21652622	      4.74536842	      2.87086076	      3.65777205	     -5.80965692	     -0.64220768	      5.39648646
      1.17916667	     -5.37539965	      0.42853875	     -4.66533102	      0.20010900	      1.01532634	      0.29770601	    -11.62288578	     -1.62953049	     -2.79678317	    -28.24100884	      9.58610896	      7.12032210	     23.52347484	     34.72945350	     -0.97764602	     -2.46887376	    -19.98022354	      4.63091060	      2.92770097	      3.64084623	     -5.76511498	     -0.91158632	      5.33799288
      1.18333333	     -5.34611471	      0.58566829	     -4.64165341	      0.20651643	      1.01567161	      0.29706704	    -11.30448511	     -1.92767820	     -3.01145880	    -29.49199823	      8.73508588	      7.16531205	     23.56001863	     34.69757101	     -0.77646148	     -2.50377097	    -20.67781889	      4.52615008	      2.89576119	      3.62383900	     -5.77791138	     -1.22126543	      5.26103520
